<svg viewBox="0 0 512 512" version="1.1" xmlns="http://www.w3.org/2000/svg" title="animated image from https://www.brandevolutionco.com/" desc="Created using Brand Evolution svg converter at https://www.brandevolutionco.com/animate/" class="animate-svg"><defs><style>.animate-svg path{-webkit-animation:draw ease-in-out forwards;animation:draw ease-in-out forwards;stroke:#000}.animate-svg{-webkit-animation:fillopacity 3 ease-in-out forwards;animation:fillopacity 3s ease-in-out forwards}@-webkit-keyframes draw{100%{stroke-dashoffset:0}}@keyframes draw{100%{stroke-dashoffset:0}}@-webkit-keyframes fillopacity{0%,70%{fill-opacity:0;stroke-width:0.5%}100%{fill-opacity:1;stroke-width:0}}@keyframes fillopacity{0%,70%{fill-opacity:0;stroke-width:0.5%}100%{fill-opacity:1;stroke-width:0}}</style></defs><path fill="rgb(0,0,0)" stroke="rgb(0,0,0)" stroke-width="null" opacity="0" d="M 0 0 L 351 0.5 Q 307.7 37.2 277 86.5 Q 251.1 128.1 245 189.5 L 189.5 245 Q 128.5 251.5 86.5 277 Q 37.2 307.7 0.5 351 L 0 0 Z " style="stroke-dasharray: 1225.86; stroke-dashoffset: 1225.86; animation-delay: 0s; animation-duration: 1.06855s;"></path><path fill="rgb(0,0,0)" stroke="rgb(0,0,0)" stroke-width="null" opacity="0" d="M 353.5 0 L 512 0 L 512 159.5 L 510 158.5 Q 476.3 108.2 432.5 68 Q 394.4 31.7 353.5 0 Z " style="stroke-dasharray: 543.949; stroke-dashoffset: 543.949; animation-delay: 0.125s; animation-duration: 0.895203s;"></path><path fill="rgb(0,0,0)" stroke="rgb(0,0,0)" stroke-width="null" opacity="0" d="M 354.5 40 Q 400.8 76.7 441 119.5 L 470 153.5 L 472 158.5 Q 445.3 188.8 409.5 210 Q 374 232 321.5 237 L 309 224.5 L 344 189.5 L 323.5 169 L 287.5 203 L 275 189.5 Q 280.7 138.7 302 103.5 Q 323.3 66.8 354.5 40 Z " style="stroke-dasharray: 679.562; stroke-dashoffset: 679.562; animation-delay: 0.25s; animation-duration: 0.883052s;"></path><path fill="rgb(0,0,0)" stroke="rgb(0,0,0)" stroke-width="null" opacity="0" d="M 511.5 161 L 512 512 L 161 511.5 L 207 465.5 Q 222.6 447.6 235 426.5 Q 261.4 384.9 267 322.5 L 322.5 267 Q 379.9 261.9 419.5 239 Q 444.6 225.1 465.5 207 L 511.5 161 Z " style="stroke-dasharray: 1226.43; stroke-dashoffset: 1226.43; animation-delay: 0.375s; animation-duration: 1.06883s;"></path><path fill="rgb(0,0,0)" stroke="rgb(0,0,0)" stroke-width="null" opacity="0" d="M 259.5 218 L 294 253.5 L 253.5 294 L 251.5 294 L 218 259.5 L 259.5 218 Z " style="stroke-dasharray: 215.557; stroke-dashoffset: 215.557; animation-delay: 0.5s; animation-duration: 1.47s;"></path><path fill="rgb(0,0,0)" stroke="rgb(0,0,0)" stroke-width="null" opacity="0" d="M 182.5 276 L 190.5 276 L 203 288.5 L 169 323.5 L 189.5 344 L 223.5 310 L 237 322.5 Q 231.6 374.1 210 409.5 Q 188.8 445.3 158.5 472 Q 117.4 443.6 85 406.5 L 40 354.5 Q 67.5 322.5 105.5 301 Q 137.9 282.4 182.5 276 Z " style="stroke-dasharray: 677.03; stroke-dashoffset: 677.03; animation-delay: 0.625s; animation-duration: 0.882895s;"></path><path fill="rgb(0,0,0)" stroke="rgb(0,0,0)" stroke-width="null" opacity="0" d="M 0.5 353 Q 41.7 407.8 90.5 455 Q 122.2 486.3 160 511.5 L 0 512 L 0.5 353 Z " style="stroke-dasharray: 544.877; stroke-dashoffset: 544.877; animation-delay: 0.75s; animation-duration: 0.894943s;"></path><path fill="rgb(0,0,0)" stroke="rgb(0,0,0)" stroke-width="null" opacity="0.9921568627450981" d="M 351.5 0 Q 408.2 41.3 456 91.5 Q 486.9 123.1 512 160.5 L 465.5 207 Q 444.6 225.1 419.5 239 Q 379.9 261.9 322.5 267 L 267 322.5 Q 261.4 384.9 235 426.5 Q 222.6 447.6 207 465.5 L 160.5 512 Q 109.5 477 68 432.5 Q 31.4 394.6 0 351.5 Q 36.9 307.9 86.5 277 Q 128.5 251.5 189.5 245 L 245 189.5 Q 251.1 128.1 277 86.5 Q 307.9 36.9 351.5 0 Z M 355 40 Q 323 67 302 104 Q 281 139 275 190 L 288 203 L 324 169 L 344 190 L 309 225 L 322 237 Q 374 232 410 210 Q 445 189 472 159 L 470 154 L 441 120 Q 401 77 355 40 Z M 260 218 L 218 260 L 252 294 L 254 294 L 294 254 L 260 218 Z M 183 276 Q 138 282 106 301 Q 67 322 40 355 L 85 407 Q 117 444 159 472 Q 189 445 210 410 Q 232 374 237 323 L 224 310 L 190 344 L 169 324 L 203 289 L 191 276 L 183 276 Z " style="stroke-dasharray: 3079.63; stroke-dashoffset: 3079.63; animation-delay: 0.875s; animation-duration: 2.1926s;"></path></svg>